<?xml version="1.0" encoding="UTF-8"?>
<!DOCTYPE svg PUBLIC "-//W3C//DTD SVG 1.1//EN" "http://www.w3.org/Graphics/SVG/1.1/DTD/svg11.dtd">
<svg xmlns="http://www.w3.org/2000/svg" version="1.1" width="297px" height="287px" style="shape-rendering:geometricPrecision; text-rendering:geometricPrecision; image-rendering:optimizeQuality; fill-rule:evenodd; clip-rule:evenodd" xmlns:xlink="http://www.w3.org/1999/xlink">
<g><path style="opacity:0.059" fill="#ebf1f8" d="M 277.5,87.5 C 274.335,81.1663 270.669,75.1663 266.5,69.5C 254.347,49.0129 237.68,33.3462 216.5,22.5C 200.295,12.851 182.628,7.01766 163.5,5C 151.5,4.33333 139.5,4.33333 127.5,5C 123.25,5.73942 119.25,6.90608 115.5,8.5C 109.21,9.37808 103.21,11.0447 97.5,13.5C 86.0455,17.3804 75.3788,22.8804 65.5,30C 56.9389,39.3908 48.2723,48.5575 39.5,57.5C 38.448,57.3505 37.448,57.5172 36.5,58C 30.9349,64.9684 26.2682,72.4684 22.5,80.5C 21.5,81.8333 20.5,83.1667 19.5,84.5C 22.7763,75.2831 27.6096,66.9498 34,59.5C 34.6172,58.5509 34.4506,57.7175 33.5,57C 34.6721,56.5814 35.6721,55.9147 36.5,55C 35.2889,53.8869 35.2889,52.7202 36.5,51.5C 42.7277,48.7733 47.061,44.2733 49.5,38C 50.448,37.5172 51.448,37.3505 52.5,37.5C 97.7045,0.811871 148.705,-7.02146 205.5,14C 234.014,27.1799 256.18,47.3466 272,74.5C 274.403,78.6347 276.237,82.9681 277.5,87.5 Z"/></g>
<g><path style="opacity:0.998" fill="#7191d7" d="M 216.5,22.5 C 237.68,33.3462 254.347,49.0129 266.5,69.5C 265.732,70.2625 265.232,71.2625 265,72.5C 263.331,69.4845 261.664,66.4845 260,63.5C 257.294,61.1294 254.961,58.4628 253,55.5C 243.344,46.824 233.844,38.324 224.5,30C 201.37,17.7071 176.703,12.7071 150.5,15C 152.464,17.5178 153.13,20.1845 152.5,23C 153.06,26.1234 154.06,29.1234 155.5,32C 153.326,36.4424 152.492,40.9424 153,45.5C 151.644,44.6198 150.144,44.2865 148.5,44.5C 147.127,44.3433 145.793,44.51 144.5,45C 141.296,48.0359 138.296,51.2026 135.5,54.5C 135.66,52.8008 135.494,51.1341 135,49.5C 133.594,50.6682 132.428,50.3348 131.5,48.5C 130.839,45.0084 129.506,41.8417 127.5,39C 129.932,37.9125 129.598,37.4125 126.5,37.5C 126.325,33.4601 125.325,29.6268 123.5,26C 124.465,23.7141 124.798,21.5474 124.5,19.5C 123.397,19.0024 122.397,18.6691 121.5,18.5C 123.131,16.7026 125.131,15.5359 127.5,15C 147.089,12.2615 166.756,11.9282 186.5,14C 196.628,16.5749 206.628,19.4083 216.5,22.5 Z"/></g>
<g><path style="opacity:0.999" fill="#6588d3" d="M 216.5,22.5 C 206.628,19.4083 196.628,16.5749 186.5,14C 166.756,11.9282 147.089,12.2615 127.5,15C 125.131,15.5359 123.131,16.7026 121.5,18.5C 122.397,18.6691 123.397,19.0024 124.5,19.5C 124.798,21.5474 124.465,23.7141 123.5,26C 125.325,29.6268 126.325,33.4601 126.5,37.5C 129.598,37.4125 129.932,37.9125 127.5,39C 129.506,41.8417 130.839,45.0084 131.5,48.5C 132.428,50.3348 133.594,50.6682 135,49.5C 135.494,51.1341 135.66,52.8008 135.5,54.5C 134.921,57.3311 133.588,59.6644 131.5,61.5C 131.5,60.5 131.5,59.5 131.5,58.5C 132.598,57.603 132.598,56.7697 131.5,56C 128.851,55.5477 126.351,54.7143 124,53.5C 121.044,54.0695 118.21,54.0695 115.5,53.5C 111.942,51.9811 109.109,49.6478 107,46.5C 106.586,46.9574 106.086,47.2907 105.5,47.5C 105.46,45.3795 104.96,43.3795 104,41.5C 103.667,41.8333 103.333,42.1667 103,42.5C 102.08,40.3683 100.913,38.3683 99.5,36.5C 98.914,36.7093 98.414,37.0426 98,37.5C 97.6667,36.1667 97.3333,34.8333 97,33.5C 95.3335,34.3402 95.1669,33.8402 96.5,32C 95.7471,30.513 94.9138,30.3463 94,31.5C 92.9328,30.0569 91.7662,28.7236 90.5,27.5C 95.8436,23.8264 101.51,20.6597 107.5,18C 116.257,16.4147 124.924,14.4147 133.5,12C 140.137,11.1074 146.803,10.6074 153.5,10.5C 161.834,11.1434 170.167,11.3101 178.5,11C 172.042,9.02037 165.375,7.68703 158.5,7C 158.833,6.66667 159.167,6.33333 159.5,6C 155.333,5.83333 151.167,5.66667 147,5.5C 135.145,5.75142 124.645,6.75142 115.5,8.5C 119.25,6.90608 123.25,5.73942 127.5,5C 139.5,4.33333 151.5,4.33333 163.5,5C 182.628,7.01766 200.295,12.851 216.5,22.5 Z"/></g>
<g><path style="opacity:1" fill="#92aadf" d="M 97.5,13.5 C 92.3906,17.5631 86.7239,20.8964 80.5,23.5C 74.4021,29.0556 67.7355,33.8889 60.5,38C 54.2369,43.757 48.5702,49.9237 43.5,56.5C 42.8333,56.5 42.5,56.8333 42.5,57.5C 39.7432,60.6177 36.7432,63.6177 33.5,66.5C 35.4742,63.5178 37.4742,60.5178 39.5,57.5C 48.2723,48.5575 56.9389,39.3908 65.5,30C 75.3788,22.8804 86.0455,17.3804 97.5,13.5 Z"/></g>
<g><path style="opacity:0.999" fill="#5c81d2" d="M 131.5,58.5 C 123.444,60.0117 115.444,61.8451 107.5,64C 105.982,65.848 104.149,67.348 102,68.5C 101.667,68.1667 101.333,67.8333 101,67.5C 98.0747,70.0594 95.0747,70.0594 92,67.5C 91.6886,68.7425 92.1886,69.7425 93.5,70.5C 89.5967,70.8755 86.2634,69.3755 83.5,66C 85.3008,65.6827 85.6341,65.016 84.5,64C 85.3081,63.6924 85.9747,63.1924 86.5,62.5C 85.3845,61.4016 85.3845,60.2349 86.5,59C 82.8738,54.2147 81.0405,48.7147 81,42.5C 79.75,39.8293 77.9167,37.6626 75.5,36C 76.8333,32 79.5,29.3333 83.5,28C 80.3513,27.7257 77.3513,28.3923 74.5,30C 63.1187,37.2113 53.1187,46.0446 44.5,56.5C 44.1667,56.5 43.8333,56.5 43.5,56.5C 48.5702,49.9237 54.2369,43.757 60.5,38C 67.7355,33.8889 74.4021,29.0556 80.5,23.5C 86.7239,20.8964 92.3906,17.5631 97.5,13.5C 103.21,11.0447 109.21,9.37808 115.5,8.5C 124.645,6.75142 135.145,5.75142 147,5.5C 151.167,5.66667 155.333,5.83333 159.5,6C 159.167,6.33333 158.833,6.66667 158.5,7C 165.375,7.68703 172.042,9.02037 178.5,11C 170.167,11.3101 161.834,11.1434 153.5,10.5C 146.803,10.6074 140.137,11.1074 133.5,12C 124.924,14.4147 116.257,16.4147 107.5,18C 101.51,20.6597 95.8436,23.8264 90.5,27.5C 91.7662,28.7236 92.9328,30.0569 94,31.5C 94.9138,30.3463 95.7471,30.513 96.5,32C 95.1669,33.8402 95.3335,34.3402 97,33.5C 97.3333,34.8333 97.6667,36.1667 98,37.5C 98.414,37.0426 98.914,36.7093 99.5,36.5C 100.913,38.3683 102.08,40.3683 103,42.5C 103.333,42.1667 103.667,41.8333 104,41.5C 104.96,43.3795 105.46,45.3795 105.5,47.5C 106.086,47.2907 106.586,46.9574 107,46.5C 109.109,49.6478 111.942,51.9811 115.5,53.5C 118.21,54.0695 121.044,54.0695 124,53.5C 126.351,54.7143 128.851,55.5477 131.5,56C 132.598,56.7697 132.598,57.603 131.5,58.5 Z"/></g>
<g><path style="opacity:0.999" fill="#5278cd" d="M 131.5,58.5 C 131.5,59.5 131.5,60.5 131.5,61.5C 131.5,62.1667 131.167,62.5 130.5,62.5C 128.274,61.441 125.941,61.6077 123.5,63C 117.34,66.8449 111.507,71.0116 106,75.5C 100.916,82.8981 96.7496,90.7314 93.5,99C 96.1977,99.065 98.3644,97.8983 100,95.5C 100.496,97.0349 100.33,98.5349 99.5,100C 99.8361,101.03 100.503,101.53 101.5,101.5C 101.5,101.833 101.5,102.167 101.5,102.5C 89.2846,106.347 76.9513,110.014 64.5,113.5C 65.5893,111.883 67.256,111.05 69.5,111C 67.6079,110.027 65.6079,109.36 63.5,109C 65.7695,108.242 67.9361,108.409 70,109.5C 73.702,108.137 77.5353,107.137 81.5,106.5C 79.8817,104.164 78.0483,104.164 76,106.5C 73.5703,104.392 70.9037,103.725 68,104.5C 65.6408,101.724 62.8075,100.557 59.5,101C 60.3566,97.2818 60.6899,93.2818 60.5,89C 59.8357,86.8336 58.8357,84.8336 57.5,83C 59.5306,78.789 59.864,74.4557 58.5,70C 58.6667,69.5 58.8333,69 59,68.5C 60.1581,68.9981 60.9915,69.8315 61.5,71C 60.6705,72.4651 60.5038,73.9651 61,75.5C 63.1518,72.9665 63.6518,70.2998 62.5,67.5C 56.7877,65.9292 55.4544,62.7625 58.5,58C 58.2134,55.0513 57.8801,52.3846 57.5,50C 58.3052,48.0283 59.6385,46.5283 61.5,45.5C 59.2671,44.9839 57.6004,45.9839 56.5,48.5C 52.772,51.5589 48.772,54.2256 44.5,56.5C 53.1187,46.0446 63.1187,37.2113 74.5,30C 77.3513,28.3923 80.3513,27.7257 83.5,28C 79.5,29.3333 76.8333,32 75.5,36C 77.9167,37.6626 79.75,39.8293 81,42.5C 81.0405,48.7147 82.8738,54.2147 86.5,59C 85.3845,60.2349 85.3845,61.4016 86.5,62.5C 85.9747,63.1924 85.3081,63.6924 84.5,64C 85.6341,65.016 85.3008,65.6827 83.5,66C 86.2634,69.3755 89.5967,70.8755 93.5,70.5C 92.1886,69.7425 91.6886,68.7425 92,67.5C 95.0747,70.0594 98.0747,70.0594 101,67.5C 101.333,67.8333 101.667,68.1667 102,68.5C 104.149,67.348 105.982,65.848 107.5,64C 115.444,61.8451 123.444,60.0117 131.5,58.5 Z"/></g>
<g><path style="opacity:0.998" fill="#7894d5" d="M 266.5,69.5 C 270.669,75.1663 274.335,81.1663 277.5,87.5C 278.292,92.5728 279.958,97.2395 282.5,101.5C 282.575,104.206 282.908,106.873 283.5,109.5C 282.461,113.342 282.461,117.342 283.5,121.5C 282.124,127.751 280.957,134.085 280,140.5C 279.902,142.619 279.069,144.286 277.5,145.5C 276.195,142.362 274.029,140.029 271,138.5C 269.168,133.337 266.668,128.504 263.5,124C 259.64,123.895 255.974,123.062 252.5,121.5C 250.344,123.573 248.011,125.24 245.5,126.5C 245.536,130.108 243.869,132.441 240.5,133.5C 241.63,131.685 242.296,129.685 242.5,127.5C 244.31,123.623 243.31,120.457 239.5,118C 233.236,115.032 226.903,112.532 220.5,110.5C 217.495,108.723 214.162,107.723 210.5,107.5C 202.21,105.041 193.877,102.708 185.5,100.5C 176.426,85.3574 167.592,70.0241 159,54.5C 156.932,50.9295 154.099,48.2629 150.5,46.5C 149.833,45.8333 149.167,45.1667 148.5,44.5C 150.144,44.2865 151.644,44.6198 153,45.5C 152.492,40.9424 153.326,36.4424 155.5,32C 154.06,29.1234 153.06,26.1234 152.5,23C 153.13,20.1845 152.464,17.5178 150.5,15C 176.703,12.7071 201.37,17.7071 224.5,30C 233.844,38.324 243.344,46.824 253,55.5C 254.961,58.4628 257.294,61.1294 260,63.5C 261.664,66.4845 263.331,69.4845 265,72.5C 265.232,71.2625 265.732,70.2625 266.5,69.5 Z"/></g>
<g><path style="opacity:1" fill="#8fa5da" d="M 211.5,26.5 C 219.701,31.4348 227.368,37.1015 234.5,43.5C 246.719,53.9404 256.552,66.2737 264,80.5C 266.301,84.675 267.134,89.0083 266.5,93.5C 258.235,78.7322 248.235,65.2322 236.5,53C 234.754,52.5291 233.087,51.8624 231.5,51C 231.833,50.6667 232.167,50.3333 232.5,50C 230.831,48.331 228.831,47.4977 226.5,47.5C 226.703,45.6096 226.037,44.1096 224.5,43C 212.043,34.7336 199.043,27.4003 185.5,21C 194.131,22.703 202.798,24.5364 211.5,26.5 Z"/></g>
<g><path style="opacity:0.999" fill="#859ed8" d="M 190.5,19.5 C 198.052,20.4616 205.052,22.7949 211.5,26.5C 202.798,24.5364 194.131,22.703 185.5,21C 199.043,27.4003 212.043,34.7336 224.5,43C 226.037,44.1096 226.703,45.6096 226.5,47.5C 228.831,47.4977 230.831,48.331 232.5,50C 232.167,50.3333 231.833,50.6667 231.5,51C 233.087,51.8624 234.754,52.5291 236.5,53C 248.235,65.2322 258.235,78.7322 266.5,93.5C 267.134,89.0083 266.301,84.675 264,80.5C 256.552,66.2737 246.719,53.9404 234.5,43.5C 236.179,43.8923 237.846,44.3923 239.5,45C 248.566,52.071 255.399,60.9043 260,71.5C 266.374,77.1319 270.541,83.1319 272.5,89.5C 273.554,98.1407 274.054,106.807 274,115.5C 266.667,103.347 259.167,91.3466 251.5,79.5C 248.191,76.9576 245.358,74.6243 243,72.5C 242.586,72.9574 242.086,73.2907 241.5,73.5C 238.696,71.8619 236.029,70.0285 233.5,68C 232.198,65.7871 231.198,63.4537 230.5,61C 225.249,61.0082 220.583,59.0082 216.5,55C 217.731,53.8173 217.731,52.6507 216.5,51.5C 214.091,48.959 211.424,47.6257 208.5,47.5C 207.772,45.8068 206.772,44.3068 205.5,43C 206.308,42.6924 206.975,42.1924 207.5,41.5C 205.803,40.6364 204.637,39.3031 204,37.5C 203.683,39.3008 203.016,39.6341 202,38.5C 202.148,37.175 201.982,36.0084 201.5,35C 195.314,32.9419 189.647,29.2752 184.5,24C 179.888,22.3606 175.554,20.1939 171.5,17.5C 171.833,17.1667 172.167,16.8333 172.5,16.5C 178.452,17.757 184.452,18.757 190.5,19.5 Z"/></g>
<g><path style="opacity:0.999" fill="#7f99d7" d="M 190.5,19.5 C 184.452,18.757 178.452,17.757 172.5,16.5C 172.167,16.8333 171.833,17.1667 171.5,17.5C 175.554,20.1939 179.888,22.3606 184.5,24C 189.647,29.2752 195.314,32.9419 201.5,35C 201.982,36.0084 202.148,37.175 202,38.5C 203.016,39.6341 203.683,39.3008 204,37.5C 204.637,39.3031 205.803,40.6364 207.5,41.5C 206.975,42.1924 206.308,42.6924 205.5,43C 206.772,44.3068 207.772,45.8068 208.5,47.5C 211.424,47.6257 214.091,48.959 216.5,51.5C 217.731,52.6507 217.731,53.8173 216.5,55C 220.583,59.0082 225.249,61.0082 230.5,61C 231.198,63.4537 232.198,65.7871 233.5,68C 236.029,70.0285 238.696,71.8619 241.5,73.5C 242.086,73.2907 242.586,72.9574 243,72.5C 245.358,74.6243 248.191,76.9576 251.5,79.5C 259.167,91.3466 266.667,103.347 274,115.5C 274.054,106.807 273.554,98.1407 272.5,89.5C 277.719,93.3508 278.719,98.1841 275.5,104C 276.148,105.44 276.481,106.94 276.5,108.5C 277.5,108.5 278.5,108.5 279.5,108.5C 277.094,113.28 277.094,118.114 279.5,123C 278.941,125.941 278.107,128.775 277,131.5C 275.009,129.543 273.009,127.543 271,125.5C 266.835,115.359 260.502,107.025 252,100.5C 251.333,101.167 250.667,101.833 250,102.5C 248.566,100.864 246.733,99.8645 244.5,99.5C 243.914,99.7093 243.414,100.043 243,100.5C 240.644,97.9855 237.811,96.1522 234.5,95C 232.641,93.4422 231.141,91.6089 230,89.5C 229.667,89.8333 229.333,90.1667 229,90.5C 228.667,89.5 228.333,88.5 228,87.5C 227.667,87.8333 227.333,88.1667 227,88.5C 225.018,84.8537 222.351,81.8537 219,79.5C 217.459,77.523 216.959,75.523 217.5,73.5C 216,71.8333 214.5,70.1667 213,68.5C 212.667,68.8333 212.333,69.1667 212,69.5C 211.667,68.1667 211.333,66.8333 211,65.5C 210.667,66.1667 210.333,66.8333 210,67.5C 206.452,65.5845 202.952,63.7512 199.5,62C 196.244,60.413 194.077,57.913 193,54.5C 192.667,54.8333 192.333,55.1667 192,55.5C 188.307,51.6997 183.807,49.1997 178.5,48C 179.451,47.2825 179.617,46.4491 179,45.5C 177.637,47.7843 176.137,47.951 174.5,46C 176.968,44.4117 177.134,42.5784 175,40.5C 174.667,41.5 174.333,42.5 174,43.5C 173.236,36.7968 172.236,30.1301 171,23.5C 167.884,21.0328 164.718,18.6994 161.5,16.5C 171.562,14.8111 181.229,15.8111 190.5,19.5 Z"/></g>
<g><path style="opacity:0.999" fill="#ecd45d" d="M 150.5,46.5 C 154.099,48.2629 156.932,50.9295 159,54.5C 167.592,70.0241 176.426,85.3574 185.5,100.5C 184.738,103.453 183.405,106.12 181.5,108.5C 181.5,107.5 181.5,106.5 181.5,105.5C 180.448,105.649 179.448,105.483 178.5,105C 174.659,100.827 170.493,96.9934 166,93.5C 161.411,84.0646 157.411,74.3979 154,64.5C 152.516,61.6887 150.349,59.6887 147.5,58.5C 147.5,54.5 147.5,50.5 147.5,46.5C 148.5,46.5 149.5,46.5 150.5,46.5 Z"/></g>
<g><path style="opacity:1" fill="#4973ce" d="M 64.5,113.5 C 62.1572,114.344 59.8239,115.344 57.5,116.5C 58.3976,114.373 60.0643,113.206 62.5,113C 60.4308,111.477 58.0974,110.643 55.5,110.5C 55.6495,111.552 55.4828,112.552 55,113.5C 51.5847,113.094 48.918,111.428 47,108.5C 44.6536,104.086 42.3203,99.7522 40,95.5C 36.9031,94.7107 36.7364,93.544 39.5,92C 38.7069,90.9148 38.0402,89.7481 37.5,88.5C 39.7905,82.5857 42.6238,76.919 46,71.5C 46.6722,62.3615 50.1722,54.6948 56.5,48.5C 57.6004,45.9839 59.2671,44.9839 61.5,45.5C 59.6385,46.5283 58.3052,48.0283 57.5,50C 57.8801,52.3846 58.2134,55.0513 58.5,58C 55.4544,62.7625 56.7877,65.9292 62.5,67.5C 63.6518,70.2998 63.1518,72.9665 61,75.5C 60.5038,73.9651 60.6705,72.4651 61.5,71C 60.9915,69.8315 60.1581,68.9981 59,68.5C 58.8333,69 58.6667,69.5 58.5,70C 59.864,74.4557 59.5306,78.789 57.5,83C 58.8357,84.8336 59.8357,86.8336 60.5,89C 60.6899,93.2818 60.3566,97.2818 59.5,101C 62.8075,100.557 65.6408,101.724 68,104.5C 70.9037,103.725 73.5703,104.392 76,106.5C 78.0483,104.164 79.8817,104.164 81.5,106.5C 77.5353,107.137 73.702,108.137 70,109.5C 67.9361,108.409 65.7695,108.242 63.5,109C 65.6079,109.36 67.6079,110.027 69.5,111C 67.256,111.05 65.5893,111.883 64.5,113.5 Z"/></g>
<g><path style="opacity:0.996" fill="#718ad2" d="M 42.5,57.5 C 35.7455,66.0126 29.7455,75.0126 24.5,84.5C 21.3704,88.2767 18.7037,92.2767 16.5,96.5C 17.0949,92.3852 18.0949,88.3852 19.5,84.5C 20.5,83.1667 21.5,81.8333 22.5,80.5C 26.1667,75.8333 29.8333,71.1667 33.5,66.5C 36.7432,63.6177 39.7432,60.6177 42.5,57.5 Z"/></g>
<g><path style="opacity:0.729" fill="#ced7ef" d="M 39.5,57.5 C 37.4742,60.5178 35.4742,63.5178 33.5,66.5C 29.8333,71.1667 26.1667,75.8333 22.5,80.5C 26.2682,72.4684 30.9349,64.9684 36.5,58C 37.448,57.5172 38.448,57.3505 39.5,57.5 Z"/></g>
<g><path style="opacity:1" fill="#dfb436" d="M 148.5,44.5 C 149.167,45.1667 149.833,45.8333 150.5,46.5C 149.5,46.5 148.5,46.5 147.5,46.5C 147.5,50.5 147.5,54.5 147.5,58.5C 147.5,59.8333 147.5,61.1667 147.5,62.5C 145.922,67.5826 145.255,72.916 145.5,78.5C 143.205,80.2307 140.705,81.564 138,82.5C 136.289,82.5607 134.956,81.8941 134,80.5C 133.326,81.5784 132.326,82.2451 131,82.5C 128.551,82.1387 126.218,81.472 124,80.5C 122.893,81.7119 122.393,81.3786 122.5,79.5C 123.561,76.3777 124.895,73.3777 126.5,70.5C 128.341,68.1515 129.674,65.4848 130.5,62.5C 131.167,62.5 131.5,62.1667 131.5,61.5C 133.588,59.6644 134.921,57.3311 135.5,54.5C 138.296,51.2026 141.296,48.0359 144.5,45C 145.793,44.51 147.127,44.3433 148.5,44.5 Z"/></g>
<g><path style="opacity:0.998" fill="#526fc5" d="M 130.5,62.5 C 129.674,65.4848 128.341,68.1515 126.5,70.5C 126.483,68.9719 125.816,68.4719 124.5,69C 116.86,78.1176 111.193,88.2843 107.5,99.5C 105.786,100.738 103.786,101.405 101.5,101.5C 100.503,101.53 99.8361,101.03 99.5,100C 100.33,98.5349 100.496,97.0349 100,95.5C 98.3644,97.8983 96.1977,99.065 93.5,99C 96.7496,90.7314 100.916,82.8981 106,75.5C 111.507,71.0116 117.34,66.8449 123.5,63C 125.941,61.6077 128.274,61.441 130.5,62.5 Z"/></g>
<g><path style="opacity:1" fill="#f1dc6d" d="M 147.5,58.5 C 150.349,59.6887 152.516,61.6887 154,64.5C 157.411,74.3979 161.411,84.0646 166,93.5C 170.493,96.9934 174.659,100.827 178.5,105C 179.448,105.483 180.448,105.649 181.5,105.5C 181.5,106.5 181.5,107.5 181.5,108.5C 181.5,108.833 181.5,109.167 181.5,109.5C 173.276,120.235 165.609,131.401 158.5,143C 159.448,143.483 160.448,143.649 161.5,143.5C 157.203,145.698 152.536,146.698 147.5,146.5C 147.5,145.5 147.5,144.5 147.5,143.5C 147.5,142.5 147.5,141.5 147.5,140.5C 148.29,139.391 148.79,138.058 149,136.5C 149.667,118.167 149.667,99.8333 149,81.5C 148.768,80.2625 148.268,79.2625 147.5,78.5C 147.5,73.1667 147.5,67.8333 147.5,62.5C 147.5,61.1667 147.5,59.8333 147.5,58.5 Z"/></g>
<g><path style="opacity:1" fill="#465aaf" d="M 126.5,70.5 C 124.895,73.3777 123.561,76.3777 122.5,79.5C 118.678,86.4711 114.345,93.1378 109.5,99.5C 108.833,99.5 108.167,99.5 107.5,99.5C 111.193,88.2843 116.86,78.1176 124.5,69C 125.816,68.4719 126.483,68.9719 126.5,70.5 Z"/></g>
<g><path style="opacity:0.999" fill="#416ac9" d="M 56.5,48.5 C 50.1722,54.6948 46.6722,62.3615 46,71.5C 42.6238,76.919 39.7905,82.5857 37.5,88.5C 38.0402,89.7481 38.7069,90.9148 39.5,92C 36.7364,93.544 36.9031,94.7107 40,95.5C 42.3203,99.7522 44.6536,104.086 47,108.5C 48.918,111.428 51.5847,113.094 55,113.5C 55.4828,112.552 55.6495,111.552 55.5,110.5C 58.0974,110.643 60.4308,111.477 62.5,113C 60.0643,113.206 58.3976,114.373 57.5,116.5C 55.2054,117.136 53.5387,118.469 52.5,120.5C 50.7868,121.635 50.1201,123.302 50.5,125.5C 50.5,126.167 50.5,126.833 50.5,127.5C 49.596,126.791 49.2627,125.791 49.5,124.5C 49.762,123.022 49.4287,121.689 48.5,120.5C 40.9937,121.494 34.4937,124.494 29,129.5C 27.7753,129.138 26.6086,128.638 25.5,128C 28.0094,126.579 30.3428,124.912 32.5,123C 31.2161,122.316 30.0495,122.483 29,123.5C 25.5404,120.458 24.0404,116.625 24.5,112C 26.1272,99.1711 29.2939,87.0044 34,75.5C 30.827,78.5339 27.6604,81.5339 24.5,84.5C 29.7455,75.0126 35.7455,66.0126 42.5,57.5C 42.5,56.8333 42.8333,56.5 43.5,56.5C 43.8333,56.5 44.1667,56.5 44.5,56.5C 48.772,54.2256 52.772,51.5589 56.5,48.5 Z"/></g>
<g><path style="opacity:0.998" fill="#d7a633" d="M 145.5,78.5 C 145.832,89.1874 145.499,99.8541 144.5,110.5C 142.401,111.965 140.234,113.299 138,114.5C 137.055,114.095 136.388,113.428 136,112.5C 133.389,113.071 130.889,113.904 128.5,115C 128.776,117.609 128.776,120.276 128.5,123C 131,124.833 133.5,126.667 136,128.5C 136.308,127.692 136.808,127.025 137.5,126.5C 140.084,127.393 142.751,127.726 145.5,127.5C 145.334,131.846 145.501,136.179 146,140.5C 146.232,141.737 146.732,142.737 147.5,143.5C 147.5,144.5 147.5,145.5 147.5,146.5C 147.5,146.833 147.5,147.167 147.5,147.5C 136.646,135.501 126.479,122.834 117,109.5C 114.521,105.877 113.188,101.877 113,97.5C 112.184,98.8228 111.017,99.4894 109.5,99.5C 114.345,93.1378 118.678,86.4711 122.5,79.5C 122.393,81.3786 122.893,81.7119 124,80.5C 126.218,81.472 128.551,82.1387 131,82.5C 132.326,82.2451 133.326,81.5784 134,80.5C 134.956,81.8941 136.289,82.5607 138,82.5C 140.705,81.564 143.205,80.2307 145.5,78.5 Z"/></g>
<g><path style="opacity:0.014" fill="#ecf3fa" d="M 277.5,87.5 C 280.254,91.6953 281.921,96.3619 282.5,101.5C 279.958,97.2395 278.292,92.5728 277.5,87.5 Z"/></g>
<g><path style="opacity:0.996" fill="#a29655" d="M 107.5,99.5 C 108.167,99.5 108.833,99.5 109.5,99.5C 107.383,101.655 104.716,102.655 101.5,102.5C 101.5,102.167 101.5,101.833 101.5,101.5C 103.786,101.405 105.786,100.738 107.5,99.5 Z"/></g>
<g><path style="opacity:0.998" fill="#e8ca49" d="M 185.5,100.5 C 193.877,102.708 202.21,105.041 210.5,107.5C 213.505,109.277 216.838,110.277 220.5,110.5C 226.903,112.532 233.236,115.032 239.5,118C 243.31,120.457 244.31,123.623 242.5,127.5C 242.737,126.209 242.404,125.209 241.5,124.5C 232.16,122.002 222.66,122.002 213,124.5C 203.943,121.777 194.777,119.444 185.5,117.5C 182.578,115.657 181.245,112.99 181.5,109.5C 181.5,109.167 181.5,108.833 181.5,108.5C 183.405,106.12 184.738,103.453 185.5,100.5 Z"/></g>
<g><path style="opacity:0.999" fill="#e2bc32" d="M 147.5,147.5 C 147.5,147.833 147.5,148.167 147.5,148.5C 147.5,148.833 147.5,149.167 147.5,149.5C 146.609,148.89 145.609,148.557 144.5,148.5C 143.833,148.5 143.167,148.5 142.5,148.5C 135.073,147.143 127.74,145.476 120.5,143.5C 115.519,141.255 110.186,139.921 104.5,139.5C 102.786,138.262 100.786,137.595 98.5,137.5C 92.9562,135.717 87.2895,134.05 81.5,132.5C 74.6453,128.715 67.312,126.215 59.5,125C 56.686,123.946 54.3527,122.446 52.5,120.5C 53.5387,118.469 55.2054,117.136 57.5,116.5C 59.8239,115.344 62.1572,114.344 64.5,113.5C 76.9513,110.014 89.2846,106.347 101.5,102.5C 104.716,102.655 107.383,101.655 109.5,99.5C 111.017,99.4894 112.184,98.8228 113,97.5C 113.188,101.877 114.521,105.877 117,109.5C 126.479,122.834 136.646,135.501 147.5,147.5 Z"/></g>
<g><path style="opacity:0.996" fill="#9ba09e" d="M 210.5,107.5 C 214.162,107.723 217.495,108.723 220.5,110.5C 216.838,110.277 213.505,109.277 210.5,107.5 Z"/></g>
<g><path style="opacity:0.998" fill="#d39c2e" d="M 147.5,62.5 C 147.5,67.8333 147.5,73.1667 147.5,78.5C 147.5,99.1667 147.5,119.833 147.5,140.5C 147.5,141.5 147.5,142.5 147.5,143.5C 146.732,142.737 146.232,141.737 146,140.5C 145.501,136.179 145.334,131.846 145.5,127.5C 142.751,127.726 140.084,127.393 137.5,126.5C 136.808,127.025 136.308,127.692 136,128.5C 133.5,126.667 131,124.833 128.5,123C 128.776,120.276 128.776,117.609 128.5,115C 130.889,113.904 133.389,113.071 136,112.5C 136.388,113.428 137.055,114.095 138,114.5C 140.234,113.299 142.401,111.965 144.5,110.5C 145.499,99.8541 145.832,89.1874 145.5,78.5C 145.255,72.916 145.922,67.5826 147.5,62.5 Z"/></g>
<g><path style="opacity:0.91" fill="#e7d486" d="M 147.5,78.5 C 148.268,79.2625 148.768,80.2625 149,81.5C 149.667,99.8333 149.667,118.167 149,136.5C 148.79,138.058 148.29,139.391 147.5,140.5C 147.5,119.833 147.5,99.1667 147.5,78.5 Z"/></g>
<g><path style="opacity:1" fill="#f5eb95" d="M 237.5,125.5 C 232.5,126.833 227.5,128.167 222.5,129.5C 221.791,128.596 220.791,128.263 219.5,128.5C 223.377,127.359 227.377,126.192 231.5,125C 233.712,124.211 235.712,124.378 237.5,125.5 Z"/></g>
<g><path style="opacity:1" fill="#718dd3" d="M 283.5,121.5 C 285.063,132.377 283.397,142.877 278.5,153C 277.5,153.667 276.5,153.667 275.5,153C 271.598,147.981 269.765,148.481 270,154.5C 271,153.833 272,153.167 273,152.5C 273.667,156.5 273.667,160.5 273,164.5C 271.417,162.607 269.917,160.607 268.5,158.5C 267.17,153.668 265.17,149.168 262.5,145C 255.711,141.113 248.378,139.279 240.5,139.5C 240.843,137.517 240.176,136.183 238.5,135.5C 238.833,134.5 239.5,133.833 240.5,133.5C 243.869,132.441 245.536,130.108 245.5,126.5C 248.011,125.24 250.344,123.573 252.5,121.5C 255.974,123.062 259.64,123.895 263.5,124C 266.668,128.504 269.168,133.337 271,138.5C 274.029,140.029 276.195,142.362 277.5,145.5C 279.069,144.286 279.902,142.619 280,140.5C 280.957,134.085 282.124,127.751 283.5,121.5 Z"/></g>
<g><path style="opacity:1" fill="#cd9c1f" d="M 52.5,120.5 C 54.3527,122.446 56.686,123.946 59.5,125C 67.312,126.215 74.6453,128.715 81.5,132.5C 71.2743,129.694 60.941,127.36 50.5,125.5C 50.1201,123.302 50.7868,121.635 52.5,120.5 Z"/></g>
<g><path style="opacity:1" fill="#edd45b" d="M 181.5,109.5 C 181.245,112.99 182.578,115.657 185.5,117.5C 194.777,119.444 203.943,121.777 213,124.5C 222.66,122.002 232.16,122.002 241.5,124.5C 240.292,125.234 238.959,125.567 237.5,125.5C 235.712,124.378 233.712,124.211 231.5,125C 227.377,126.192 223.377,127.359 219.5,128.5C 200.16,133.503 180.826,138.503 161.5,143.5C 160.448,143.649 159.448,143.483 158.5,143C 165.609,131.401 173.276,120.235 181.5,109.5 Z"/></g>
<g><path style="opacity:1" fill="#d8af23" d="M 241.5,124.5 C 242.404,125.209 242.737,126.209 242.5,127.5C 242.296,129.685 241.63,131.685 240.5,133.5C 239.5,133.833 238.833,134.5 238.5,135.5C 236.833,137.833 234.833,139.833 232.5,141.5C 231.207,140.355 230.041,140.689 229,142.5C 225.691,137.687 221.191,134.687 215.5,133.5C 209.953,135.069 204.286,136.069 198.5,136.5C 206.287,133.797 214.287,131.464 222.5,129.5C 227.5,128.167 232.5,126.833 237.5,125.5C 238.959,125.567 240.292,125.234 241.5,124.5 Z"/></g>
<g><path style="opacity:0.718" fill="#f2e9b9" d="M 219.5,128.5 C 220.791,128.263 221.791,128.596 222.5,129.5C 214.287,131.464 206.287,133.797 198.5,136.5C 182.421,140.186 166.421,144.186 150.5,148.5C 149.5,148.5 148.5,148.5 147.5,148.5C 147.5,148.167 147.5,147.833 147.5,147.5C 147.5,147.167 147.5,146.833 147.5,146.5C 152.536,146.698 157.203,145.698 161.5,143.5C 180.826,138.503 200.16,133.503 219.5,128.5 Z"/></g>
<g><path style="opacity:0.997" fill="#74400a" d="M 50.5,125.5 C 60.941,127.36 71.2743,129.694 81.5,132.5C 87.2895,134.05 92.9562,135.717 98.5,137.5C 96.1582,137.775 96.1582,138.608 98.5,140C 93.379,142.644 88.2123,145.144 83,147.5C 80.095,146.423 77.2616,146.757 74.5,148.5C 75.4346,151.415 76.7679,154.082 78.5,156.5C 78.3333,157.167 78.1667,157.833 78,158.5C 77.3292,157.748 76.4959,157.414 75.5,157.5C 70.4729,153.14 65.8062,148.473 61.5,143.5C 59.823,141.46 58.1563,139.46 56.5,137.5C 54.4667,134.477 52.4667,131.477 50.5,128.5C 50.5,128.167 50.5,127.833 50.5,127.5C 50.5,126.833 50.5,126.167 50.5,125.5 Z"/></g>
<g><path style="opacity:0.999" fill="#6786d1" d="M 283.5,109.5 C 285.873,115.489 286.873,121.822 286.5,128.5C 285.689,135.678 285.022,143.012 284.5,150.5C 282.476,157.552 279.976,164.552 277,171.5C 276.333,172.833 275.667,172.833 275,171.5C 272.725,177.648 269.725,177.982 266,172.5C 264.67,169.303 262.836,166.47 260.5,164C 256.44,163.022 252.44,161.855 248.5,160.5C 247.269,159.349 247.269,158.183 248.5,157C 247.335,155.916 246.002,155.083 244.5,154.5C 243.772,152.807 242.772,151.307 241.5,150C 238.775,148.805 236.109,148.472 233.5,149C 236.028,147.684 236.028,146.517 233.5,145.5C 234.988,143.114 234.655,142.448 232.5,143.5C 232.5,142.833 232.5,142.167 232.5,141.5C 234.833,139.833 236.833,137.833 238.5,135.5C 240.176,136.183 240.843,137.517 240.5,139.5C 248.378,139.279 255.711,141.113 262.5,145C 265.17,149.168 267.17,153.668 268.5,158.5C 269.917,160.607 271.417,162.607 273,164.5C 273.667,160.5 273.667,156.5 273,152.5C 272,153.167 271,153.833 270,154.5C 269.765,148.481 271.598,147.981 275.5,153C 276.5,153.667 277.5,153.667 278.5,153C 283.397,142.877 285.063,132.377 283.5,121.5C 282.461,117.342 282.461,113.342 283.5,109.5 Z"/></g>
<g><path style="opacity:0.137" fill="#dfe1ef" d="M 19.5,84.5 C 18.0949,88.3852 17.0949,92.3852 16.5,96.5C 15.4415,97.6002 14.6082,98.9336 14,100.5C 12.7228,105.493 11.5562,110.493 10.5,115.5C 8.04535,128.04 7.04535,140.707 7.5,153.5C 7.5,155.5 7.5,157.5 7.5,159.5C 5.11921,138.186 7.28587,117.186 14,96.5C 15.3718,92.1865 17.2051,88.1865 19.5,84.5 Z"/></g>
<g><path style="opacity:1" fill="#d09c0f" d="M 232.5,141.5 C 232.5,142.167 232.5,142.833 232.5,143.5C 230.167,145.167 228.167,147.167 226.5,149.5C 219.838,156.329 213.338,163.329 207,170.5C 205.906,172.078 205.072,173.745 204.5,175.5C 196.477,171.791 188.477,168.124 180.5,164.5C 170.813,160.158 161.146,155.492 151.5,150.5C 150.702,150.043 150.369,149.376 150.5,148.5C 166.421,144.186 182.421,140.186 198.5,136.5C 204.286,136.069 209.953,135.069 215.5,133.5C 221.191,134.687 225.691,137.687 229,142.5C 230.041,140.689 231.207,140.355 232.5,141.5 Z"/></g>
<g><path style="opacity:1" fill="#1b319e" d="M 38.5,225.5 C 35.5985,222.688 32.9319,219.688 30.5,216.5C 28.8564,215.684 27.6897,214.35 27,212.5C 24.5932,207.691 22.7598,202.691 21.5,197.5C 20.8324,189.475 18.3324,182.141 14,175.5C 12.7998,166.804 10.9665,158.471 8.5,150.5C 8.23652,139.881 9.73652,129.548 13,119.5C 13.1968,134.193 13.8634,148.859 15,163.5C 17.3692,173.979 20.2026,184.312 23.5,194.5C 24.5,194.5 25.5,194.5 26.5,194.5C 29.0103,200.542 30.8437,206.876 32,213.5C 35.0123,217.032 37.179,221.032 38.5,225.5 Z"/></g>
<g><path style="opacity:0.999" fill="#5f1f04" d="M 120.5,143.5 C 127.74,145.476 135.073,147.143 142.5,148.5C 142.611,149.117 142.944,149.617 143.5,150C 142.263,150.232 141.263,150.732 140.5,151.5C 126.07,158.214 111.737,165.214 97.5,172.5C 96.448,172.649 95.448,172.483 94.5,172C 102.886,167.572 110.386,162.072 117,155.5C 117.912,152.761 119.412,150.428 121.5,148.5C 121.069,146.234 119.736,144.734 117.5,144C 118.448,143.517 119.448,143.351 120.5,143.5 Z"/></g>
<g><path style="opacity:1" fill="#0c124d" d="M 56.5,137.5 C 58.1563,139.46 59.823,141.46 61.5,143.5C 65.0646,149.507 68.0646,155.84 70.5,162.5C 66.8725,159.047 63.0392,155.713 59,152.5C 58.0701,150.064 56.9034,147.731 55.5,145.5C 57.1768,142.888 57.5101,140.222 56.5,137.5 Z"/></g>
<g><path style="opacity:0.999" fill="#6b3708" d="M 98.5,137.5 C 100.786,137.595 102.786,138.262 104.5,139.5C 103.668,140.329 104.001,141.162 105.5,142C 104.333,142.5 103.5,143.333 103,144.5C 101.606,152.604 98.7723,160.104 94.5,167C 92.1136,168.193 89.7802,169.36 87.5,170.5C 83.5,166.167 79.5,161.833 75.5,157.5C 76.4959,157.414 77.3292,157.748 78,158.5C 78.1667,157.833 78.3333,157.167 78.5,156.5C 76.7679,154.082 75.4346,151.415 74.5,148.5C 77.2616,146.757 80.095,146.423 83,147.5C 88.2123,145.144 93.379,142.644 98.5,140C 96.1582,138.608 96.1582,137.775 98.5,137.5 Z"/></g>
<g><path style="opacity:0.997" fill="#2a4cae" d="M 49.5,124.5 C 49.2627,125.791 49.596,126.791 50.5,127.5C 50.5,127.833 50.5,128.167 50.5,128.5C 46.2619,129.073 43.5952,131.407 42.5,135.5C 43.4911,139.131 44.3244,142.798 45,146.5C 47.6868,151.991 50.5202,157.324 53.5,162.5C 59.7511,166.587 64.9178,171.921 69,178.5C 74.2506,191.625 76.0839,204.958 74.5,218.5C 75.5928,222.147 76.7595,226.147 78,230.5C 81.3273,233.154 85.1606,234.154 89.5,233.5C 92.8333,233.5 96.1667,233.5 99.5,233.5C 97.3621,234.404 95.0288,235.071 92.5,235.5C 90.9644,236.249 89.6311,237.249 88.5,238.5C 84.8956,238.09 81.2289,237.923 77.5,238C 72.5952,236.82 70.7619,233.986 72,229.5C 71.6411,232.544 70.9745,232.878 70,230.5C 69.2419,228.231 69.4086,226.064 70.5,224C 70,223.5 69.5,223 69,222.5C 67.9914,210.59 66.658,198.924 65,187.5C 59.4665,177.307 52.4665,168.307 44,160.5C 39.8253,151.609 38.1586,142.276 39,132.5C 41.4633,128.514 44.9633,125.847 49.5,124.5 Z"/></g>
<g><path style="opacity:0.078" fill="#d4e4f3" d="M 282.5,101.5 C 290.539,126.121 291.373,151.121 285,176.5C 284.03,182.246 282.197,187.579 279.5,192.5C 282.944,180.72 285.444,168.72 287,156.5C 287.824,146.991 287.658,137.657 286.5,128.5C 286.873,121.822 285.873,115.489 283.5,109.5C 282.908,106.873 282.575,104.206 282.5,101.5 Z"/></g>
<g><path style="opacity:0.999" fill="#203c9c" d="M 50.5,128.5 C 49.6576,133.161 49.1576,137.828 49,142.5C 51.2586,149.731 55.4252,155.397 61.5,159.5C 61.7086,160.922 62.2086,162.255 63,163.5C 67.0352,167.2 70.7019,171.2 74,175.5C 78.9565,189.707 81.2898,204.374 81,219.5C 82,221.833 83,224.167 84,226.5C 84.69,227.738 85.19,227.738 85.5,226.5C 85.8333,226.5 86.1667,226.5 86.5,226.5C 86.9255,229.119 87.9255,231.453 89.5,233.5C 85.1606,234.154 81.3273,233.154 78,230.5C 76.7595,226.147 75.5928,222.147 74.5,218.5C 76.0839,204.958 74.2506,191.625 69,178.5C 64.9178,171.921 59.7511,166.587 53.5,162.5C 50.5202,157.324 47.6868,151.991 45,146.5C 44.3244,142.798 43.4911,139.131 42.5,135.5C 43.5952,131.407 46.2619,129.073 50.5,128.5 Z"/></g>
<g><path style="opacity:0.996" fill="#9f3f0a" d="M 142.5,148.5 C 143.167,148.5 143.833,148.5 144.5,148.5C 141.548,156.404 137.548,163.737 132.5,170.5C 122.719,174.427 112.719,177.76 102.5,180.5C 102.323,179.053 101.323,177.719 99.5,176.5C 109.389,172.889 118.723,168.222 127.5,162.5C 132.084,159.004 136.418,155.337 140.5,151.5C 141.263,150.732 142.263,150.232 143.5,150C 142.944,149.617 142.611,149.117 142.5,148.5 Z"/></g>
<g><path style="opacity:0.998" fill="#662b06" d="M 104.5,139.5 C 110.186,139.921 115.519,141.255 120.5,143.5C 119.448,143.351 118.448,143.517 117.5,144C 119.736,144.734 121.069,146.234 121.5,148.5C 119.412,150.428 117.912,152.761 117,155.5C 110.386,162.072 102.886,167.572 94.5,172C 95.448,172.483 96.448,172.649 97.5,172.5C 95.2299,173.545 93.2299,174.879 91.5,176.5C 91.7678,178.099 91.4345,179.432 90.5,180.5C 90.9784,176.662 89.9784,173.329 87.5,170.5C 89.7802,169.36 92.1136,168.193 94.5,167C 98.7723,160.104 101.606,152.604 103,144.5C 103.5,143.333 104.333,142.5 105.5,142C 104.001,141.162 103.668,140.329 104.5,139.5 Z"/></g>
<g><path style="opacity:1" fill="#e4be35" d="M 180.5,164.5 C 188.477,168.124 196.477,171.791 204.5,175.5C 205.723,192.175 207.056,208.841 208.5,225.5C 208.293,228.241 207.293,230.574 205.5,232.5C 205.167,232.5 204.833,232.5 204.5,232.5C 193.802,218.143 183.135,203.81 172.5,189.5C 164.999,178.502 157.999,167.168 151.5,155.5C 152.793,154.355 153.959,154.689 155,156.5C 162.105,168.601 169.605,180.434 177.5,192C 178.448,192.483 179.448,192.649 180.5,192.5C 180.354,190.058 181.187,189.391 183,190.5C 184.934,188.581 184.767,187.081 182.5,186C 186.649,184.622 188.316,181.955 187.5,178C 188.357,177.311 189.023,176.478 189.5,175.5C 188.248,173.999 187.248,172.332 186.5,170.5C 184.614,169.594 182.78,168.594 181,167.5C 180.517,166.552 180.351,165.552 180.5,164.5 Z"/></g>
<g><path style="opacity:1" fill="#842c05" d="M 140.5,151.5 C 136.418,155.337 132.084,159.004 127.5,162.5C 118.723,168.222 109.389,172.889 99.5,176.5C 96.8333,176.5 94.1667,176.5 91.5,176.5C 93.2299,174.879 95.2299,173.545 97.5,172.5C 111.737,165.214 126.07,158.214 140.5,151.5 Z"/></g>
<g><path style="opacity:0.999" fill="#5b7ecf" d="M 284.5,150.5 C 284.235,154.853 283.735,159.187 283,163.5C 281.268,167.363 279.934,171.363 279,175.5C 278.25,176.126 277.416,176.626 276.5,177C 277.022,177.561 277.355,178.228 277.5,179C 276.47,181.56 275.303,184.06 274,186.5C 268.838,192.662 263.338,198.495 257.5,204C 256.5,204.667 255.5,204.667 254.5,204C 253.033,201.599 252.199,199.099 252,196.5C 252.889,197.888 253.389,197.722 253.5,196C 253.265,195.127 252.931,194.293 252.5,193.5C 246.236,191.367 241.569,187.367 238.5,181.5C 237.372,180.738 236.205,180.071 235,179.5C 233.956,181.715 233.29,184.048 233,186.5C 231.266,185.362 229.432,184.862 227.5,185C 228.042,187.549 228.376,190.049 228.5,192.5C 228.444,193.737 227.944,194.737 227,195.5C 226.383,194.551 226.549,193.718 227.5,193C 224.686,192.221 223.02,190.888 222.5,189C 223.602,186.599 223.769,184.099 223,181.5C 221.691,183.976 219.858,185.976 217.5,187.5C 216.167,188.5 216.167,189.5 217.5,190.5C 218.719,189.737 219.719,188.737 220.5,187.5C 220.833,188.167 221.167,188.833 221.5,189.5C 220.167,191.167 218.833,192.833 217.5,194.5C 216.803,198.471 216.303,202.471 216,206.5C 214.897,203.523 213.73,200.523 212.5,197.5C 212.709,196.914 213.043,196.414 213.5,196C 211.941,190.267 211.108,184.433 211,178.5C 215.251,171.085 220.084,164.085 225.5,157.5C 226.192,154.855 227.192,152.355 228.5,150C 227.906,149.536 227.239,149.369 226.5,149.5C 228.167,147.167 230.167,145.167 232.5,143.5C 234.655,142.448 234.988,143.114 233.5,145.5C 236.028,146.517 236.028,147.684 233.5,149C 236.109,148.472 238.775,148.805 241.5,150C 242.772,151.307 243.772,152.807 244.5,154.5C 246.002,155.083 247.335,155.916 248.5,157C 247.269,158.183 247.269,159.349 248.5,160.5C 252.44,161.855 256.44,163.022 260.5,164C 262.836,166.47 264.67,169.303 266,172.5C 269.725,177.982 272.725,177.648 275,171.5C 275.667,172.833 276.333,172.833 277,171.5C 279.976,164.552 282.476,157.552 284.5,150.5 Z"/></g>
<g><path style="opacity:0.996" fill="#0c0a2d" d="M 61.5,143.5 C 65.8062,148.473 70.4729,153.14 75.5,157.5C 79.5,161.833 83.5,166.167 87.5,170.5C 89.9784,173.329 90.9784,176.662 90.5,180.5C 90.5,181.833 90.5,183.167 90.5,184.5C 90.1667,184.5 89.8333,184.5 89.5,184.5C 89.3645,180.562 87.8645,177.228 85,174.5C 81.1667,172 78,168.833 75.5,165C 73.9221,163.906 72.2554,163.072 70.5,162.5C 68.0646,155.84 65.0646,149.507 61.5,143.5 Z"/></g>
<g><path style="opacity:0.998" fill="#e8c743" d="M 147.5,148.5 C 148.5,148.5 149.5,148.5 150.5,148.5C 150.369,149.376 150.702,150.043 151.5,150.5C 161.146,155.492 170.813,160.158 180.5,164.5C 180.351,165.552 180.517,166.552 181,167.5C 182.78,168.594 184.614,169.594 186.5,170.5C 187.248,172.332 188.248,173.999 189.5,175.5C 189.023,176.478 188.357,177.311 187.5,178C 188.316,181.955 186.649,184.622 182.5,186C 184.767,187.081 184.934,188.581 183,190.5C 181.187,189.391 180.354,190.058 180.5,192.5C 179.448,192.649 178.448,192.483 177.5,192C 169.605,180.434 162.105,168.601 155,156.5C 153.959,154.689 152.793,154.355 151.5,155.5C 150.167,153.833 148.833,152.167 147.5,150.5C 147.5,150.167 147.5,149.833 147.5,149.5C 147.5,149.167 147.5,148.833 147.5,148.5 Z"/></g>
<g><path style="opacity:1" fill="#132071" d="M 50.5,128.5 C 52.4667,131.477 54.4667,134.477 56.5,137.5C 57.5101,140.222 57.1768,142.888 55.5,145.5C 56.9034,147.731 58.0701,150.064 59,152.5C 63.0392,155.713 66.8725,159.047 70.5,162.5C 74.8717,168.588 79.705,174.254 85,179.5C 85.4236,181.976 86.2569,184.309 87.5,186.5C 87.1833,191.758 87.1833,197.092 87.5,202.5C 87.5,205.5 87.5,208.5 87.5,211.5C 86.5128,216.305 86.1795,221.305 86.5,226.5C 86.1667,226.5 85.8333,226.5 85.5,226.5C 86.5759,208.782 83.7426,191.782 77,175.5C 71.5289,170.2 66.3623,164.867 61.5,159.5C 55.4252,155.397 51.2586,149.731 49,142.5C 49.1576,137.828 49.6576,133.161 50.5,128.5 Z"/></g>
<g><path style="opacity:0.996" fill="#0d114c" d="M 70.5,162.5 C 72.2554,163.072 73.9221,163.906 75.5,165C 78,168.833 81.1667,172 85,174.5C 87.8645,177.228 89.3645,180.562 89.5,184.5C 89.0019,189.152 88.6686,193.819 88.5,198.5C 88.7678,200.099 88.4345,201.432 87.5,202.5C 87.1833,197.092 87.1833,191.758 87.5,186.5C 86.2569,184.309 85.4236,181.976 85,179.5C 79.705,174.254 74.8717,168.588 70.5,162.5 Z"/></g>
<g><path style="opacity:1" fill="#131f7d" d="M 8.5,150.5 C 10.9665,158.471 12.7998,166.804 14,175.5C 18.3324,182.141 20.8324,189.475 21.5,197.5C 20.8826,197.611 20.3826,197.944 20,198.5C 19.7216,197.584 19.2216,196.918 18.5,196.5C 12.2071,182.987 8.87376,168.653 8.5,153.5C 8.5,152.5 8.5,151.5 8.5,150.5 Z"/></g>
<g><path style="opacity:1" fill="#a4500e" d="M 132.5,170.5 C 130.154,173.871 127.821,177.204 125.5,180.5C 124.504,180.586 123.671,180.252 123,179.5C 112.45,182.776 101.616,184.776 90.5,185.5C 90.5,185.167 90.5,184.833 90.5,184.5C 90.5,183.167 90.5,181.833 90.5,180.5C 91.4345,179.432 91.7678,178.099 91.5,176.5C 94.1667,176.5 96.8333,176.5 99.5,176.5C 101.323,177.719 102.323,179.053 102.5,180.5C 112.719,177.76 122.719,174.427 132.5,170.5 Z"/></g>
<g><path style="opacity:0.999" fill="#5079d0" d="M 286.5,128.5 C 287.658,137.657 287.824,146.991 287,156.5C 285.444,168.72 282.944,180.72 279.5,192.5C 278.167,194.5 276.833,196.5 275.5,198.5C 275.5,196.833 275.5,195.167 275.5,193.5C 276.474,191.18 277.474,188.847 278.5,186.5C 278.333,185.5 278.167,184.5 278,183.5C 276.333,186.833 274.667,190.167 273,193.5C 266.864,200.295 261.531,207.628 257,215.5C 252.569,221.638 246.736,224.305 239.5,223.5C 240.121,221.002 239.455,218.668 237.5,216.5C 235.184,215.068 232.684,214.068 230,213.5C 228.415,214.376 227.415,215.709 227,217.5C 226.692,216.692 226.192,216.025 225.5,215.5C 224.205,216.098 222.872,216.598 221.5,217C 219.836,218.675 218.17,220.175 216.5,221.5C 214.364,220.577 213.198,218.911 213,216.5C 210.752,218.47 209.252,221.47 208.5,225.5C 207.056,208.841 205.723,192.175 204.5,175.5C 205.072,173.745 205.906,172.078 207,170.5C 213.338,163.329 219.838,156.329 226.5,149.5C 227.239,149.369 227.906,149.536 228.5,150C 227.192,152.355 226.192,154.855 225.5,157.5C 220.084,164.085 215.251,171.085 211,178.5C 211.108,184.433 211.941,190.267 213.5,196C 213.043,196.414 212.709,196.914 212.5,197.5C 213.73,200.523 214.897,203.523 216,206.5C 216.303,202.471 216.803,198.471 217.5,194.5C 218.833,192.833 220.167,191.167 221.5,189.5C 221.167,188.833 220.833,188.167 220.5,187.5C 219.719,188.737 218.719,189.737 217.5,190.5C 216.167,189.5 216.167,188.5 217.5,187.5C 219.858,185.976 221.691,183.976 223,181.5C 223.769,184.099 223.602,186.599 222.5,189C 223.02,190.888 224.686,192.221 227.5,193C 226.549,193.718 226.383,194.551 227,195.5C 227.944,194.737 228.444,193.737 228.5,192.5C 228.376,190.049 228.042,187.549 227.5,185C 229.432,184.862 231.266,185.362 233,186.5C 233.29,184.048 233.956,181.715 235,179.5C 236.205,180.071 237.372,180.738 238.5,181.5C 241.569,187.367 246.236,191.367 252.5,193.5C 252.931,194.293 253.265,195.127 253.5,196C 253.389,197.722 252.889,197.888 252,196.5C 252.199,199.099 253.033,201.599 254.5,204C 255.5,204.667 256.5,204.667 257.5,204C 263.338,198.495 268.838,192.662 274,186.5C 275.303,184.06 276.47,181.56 277.5,179C 277.355,178.228 277.022,177.561 276.5,177C 277.416,176.626 278.25,176.126 279,175.5C 279.934,171.363 281.268,167.363 283,163.5C 283.735,159.187 284.235,154.853 284.5,150.5C 285.022,143.012 285.689,135.678 286.5,128.5 Z"/></g>
<g><path style="opacity:0.999" fill="#b87f0a" d="M 144.5,148.5 C 145.609,148.557 146.609,148.89 147.5,149.5C 147.5,149.833 147.5,150.167 147.5,150.5C 146.507,158.65 146.174,166.983 146.5,175.5C 145.423,187.333 143.756,199.167 141.5,211C 135.193,211.835 129.193,213.335 123.5,215.5C 116.666,212.837 109.666,213.504 102.5,217.5C 102.167,217.167 101.833,216.833 101.5,216.5C 103.526,213.482 105.526,210.482 107.5,207.5C 114.241,199.024 120.241,190.024 125.5,180.5C 127.821,177.204 130.154,173.871 132.5,170.5C 137.548,163.737 141.548,156.404 144.5,148.5 Z"/></g>
<g><path style="opacity:0.998" fill="#6e3504" d="M 147.5,150.5 C 148.833,152.167 150.167,153.833 151.5,155.5C 157.999,167.168 164.999,178.502 172.5,189.5C 170.941,192.87 171.274,196.036 173.5,199C 171.937,199.759 170.937,200.926 170.5,202.5C 170.046,205.14 168.879,207.473 167,209.5C 163.182,209.736 159.349,209.236 155.5,208C 154.782,210.461 154.115,212.961 153.5,215.5C 153.709,216.086 154.043,216.586 154.5,217C 151.854,217.497 149.187,217.664 146.5,217.5C 146.5,203.5 146.5,189.5 146.5,175.5C 146.174,166.983 146.507,158.65 147.5,150.5 Z"/></g>
<g><path style="opacity:0.333" fill="#c8c9cf" d="M 7.5,153.5 C 7.83333,153.5 8.16667,153.5 8.5,153.5C 8.87376,168.653 12.2071,182.987 18.5,196.5C 22.0413,207.257 27.3746,216.924 34.5,225.5C 37.0043,229.828 40.0043,233.828 43.5,237.5C 46.8333,241.167 50.1667,244.833 53.5,248.5C 34.385,232.506 20.885,212.506 13,188.5C 9.73126,179.094 7.89793,169.428 7.5,159.5C 7.5,157.5 7.5,155.5 7.5,153.5 Z"/></g>
<g><path style="opacity:0.999" fill="#172b86" d="M 61.5,159.5 C 66.3623,164.867 71.5289,170.2 77,175.5C 83.7426,191.782 86.5759,208.782 85.5,226.5C 85.19,227.738 84.69,227.738 84,226.5C 83,224.167 82,221.833 81,219.5C 81.2898,204.374 78.9565,189.707 74,175.5C 70.7019,171.2 67.0352,167.2 63,163.5C 62.2086,162.255 61.7086,160.922 61.5,159.5 Z"/></g>
<g><path style="opacity:0.998" fill="#b47314" d="M 125.5,180.5 C 120.241,190.024 114.241,199.024 107.5,207.5C 107.167,207.5 106.833,207.5 106.5,207.5C 109.018,202.973 111.684,198.473 114.5,194C 106.586,194.273 99.4195,196.773 93,201.5C 90.6059,207.276 89.9393,213.276 91,219.5C 91.8159,220.823 92.9826,221.489 94.5,221.5C 93.8333,222.833 93.1667,224.167 92.5,225.5C 91.3646,227.213 89.698,227.88 87.5,227.5C 87.5,222.167 87.5,216.833 87.5,211.5C 87.5,208.5 87.5,205.5 87.5,202.5C 88.4345,201.432 88.7678,200.099 88.5,198.5C 89.8955,194.409 90.5621,190.076 90.5,185.5C 101.616,184.776 112.45,182.776 123,179.5C 123.671,180.252 124.504,180.586 125.5,180.5 Z"/></g>
<g><path style="opacity:0.999" fill="#bd8019" d="M 106.5,207.5 C 102.126,211.872 98.1256,216.539 94.5,221.5C 92.9826,221.489 91.8159,220.823 91,219.5C 89.9393,213.276 90.6059,207.276 93,201.5C 99.4195,196.773 106.586,194.273 114.5,194C 111.684,198.473 109.018,202.973 106.5,207.5 Z"/></g>
<g><path style="opacity:1" fill="#6c4922" d="M 89.5,184.5 C 89.8333,184.5 90.1667,184.5 90.5,184.5C 90.5,184.833 90.5,185.167 90.5,185.5C 90.5621,190.076 89.8955,194.409 88.5,198.5C 88.6686,193.819 89.0019,189.152 89.5,184.5 Z"/></g>
<g><path style="opacity:1" fill="#1a1950" d="M 18.5,196.5 C 19.2216,196.918 19.7216,197.584 20,198.5C 20.3826,197.944 20.8826,197.611 21.5,197.5C 22.7598,202.691 24.5932,207.691 27,212.5C 27.6897,214.35 28.8564,215.684 30.5,216.5C 31.5758,219.648 32.9091,222.648 34.5,225.5C 27.3746,216.924 22.0413,207.257 18.5,196.5 Z"/></g>
<g><path style="opacity:1" fill="#643708" d="M 204.5,232.5 C 204.833,232.5 205.167,232.5 205.5,232.5C 205.5,233.167 205.167,233.5 204.5,233.5C 193.911,230.842 183.244,228.509 172.5,226.5C 167.854,224.023 162.854,222.356 157.5,221.5C 153.526,219.425 149.192,218.425 144.5,218.5C 144.842,217.662 145.508,217.328 146.5,217.5C 149.187,217.664 151.854,217.497 154.5,217C 154.043,216.586 153.709,216.086 153.5,215.5C 154.115,212.961 154.782,210.461 155.5,208C 159.349,209.236 163.182,209.736 167,209.5C 168.879,207.473 170.046,205.14 170.5,202.5C 171.423,201.697 172.423,201.53 173.5,202C 172.72,203.073 172.887,204.24 174,205.5C 177.746,208.29 181.579,210.957 185.5,213.5C 182.771,215.367 183.104,216.367 186.5,216.5C 186.549,219.099 187.549,221.266 189.5,223C 194.661,226.011 199.661,229.178 204.5,232.5 Z"/></g>
<g><path style="opacity:0.999" fill="#a7720f" d="M 146.5,175.5 C 146.5,189.5 146.5,203.5 146.5,217.5C 145.508,217.328 144.842,217.662 144.5,218.5C 143.508,218.328 142.842,218.662 142.5,219.5C 137.297,220.009 132.63,221.676 128.5,224.5C 118.861,227.326 109.195,229.993 99.5,232.5C 97.1667,232.5 94.8333,232.5 92.5,232.5C 92.8652,229.921 92.8652,227.588 92.5,225.5C 93.1667,224.167 93.8333,222.833 94.5,221.5C 98.1256,216.539 102.126,211.872 106.5,207.5C 106.833,207.5 107.167,207.5 107.5,207.5C 105.526,210.482 103.526,213.482 101.5,216.5C 101.833,216.833 102.167,217.167 102.5,217.5C 109.666,213.504 116.666,212.837 123.5,215.5C 129.193,213.335 135.193,211.835 141.5,211C 143.756,199.167 145.423,187.333 146.5,175.5 Z"/></g>
<g><path style="opacity:0.997" fill="#6f4408" d="M 172.5,189.5 C 183.135,203.81 193.802,218.143 204.5,232.5C 199.661,229.178 194.661,226.011 189.5,223C 187.549,221.266 186.549,219.099 186.5,216.5C 183.104,216.367 182.771,215.367 185.5,213.5C 181.579,210.957 177.746,208.29 174,205.5C 172.887,204.24 172.72,203.073 173.5,202C 172.423,201.53 171.423,201.697 170.5,202.5C 170.937,200.926 171.937,199.759 173.5,199C 171.274,196.036 170.941,192.87 172.5,189.5 Z"/></g>
<g><path style="opacity:1" fill="#180f1b" d="M 157.5,221.5 C 162.854,222.356 167.854,224.023 172.5,226.5C 167.041,225.791 162.041,224.125 157.5,221.5 Z"/></g>
<g><path style="opacity:0.999" fill="#4872cc" d="M 275.5,193.5 C 269.191,204.584 261.524,214.751 252.5,224C 254.701,224.777 254.701,225.944 252.5,227.5C 241.058,236.063 229.058,243.896 216.5,251C 215.5,251.5 214.5,252 213.5,252.5C 210.966,252.434 208.466,252.434 206,252.5C 205.399,250.863 204.899,249.197 204.5,247.5C 204.818,246.353 205.484,245.519 206.5,245C 204.898,243.065 203.731,240.899 203,238.5C 201.482,237.837 200.315,236.837 199.5,235.5C 200.791,235.737 201.791,235.404 202.5,234.5C 203.492,234.672 204.158,234.338 204.5,233.5C 205.167,233.5 205.5,233.167 205.5,232.5C 207.293,230.574 208.293,228.241 208.5,225.5C 209.252,221.47 210.752,218.47 213,216.5C 213.198,218.911 214.364,220.577 216.5,221.5C 218.17,220.175 219.836,218.675 221.5,217C 222.872,216.598 224.205,216.098 225.5,215.5C 226.192,216.025 226.692,216.692 227,217.5C 227.415,215.709 228.415,214.376 230,213.5C 232.684,214.068 235.184,215.068 237.5,216.5C 239.455,218.668 240.121,221.002 239.5,223.5C 246.736,224.305 252.569,221.638 257,215.5C 261.531,207.628 266.864,200.295 273,193.5C 274.667,190.167 276.333,186.833 278,183.5C 278.167,184.5 278.333,185.5 278.5,186.5C 277.474,188.847 276.474,191.18 275.5,193.5 Z"/></g>
<g><path style="opacity:1" fill="#131865" d="M 30.5,216.5 C 32.9319,219.688 35.5985,222.688 38.5,225.5C 39.1667,225.5 39.5,225.833 39.5,226.5C 41.504,230.192 43.504,233.859 45.5,237.5C 44.8333,237.5 44.1667,237.5 43.5,237.5C 40.0043,233.828 37.0043,229.828 34.5,225.5C 32.9091,222.648 31.5758,219.648 30.5,216.5 Z"/></g>
<g><path style="opacity:1" fill="#0b175a" d="M 142.5,219.5 C 142.842,218.662 143.508,218.328 144.5,218.5C 149.192,218.425 153.526,219.425 157.5,221.5C 162.041,224.125 167.041,225.791 172.5,226.5C 176.766,228.366 181.099,230.033 185.5,231.5C 183.167,231.5 180.833,231.5 178.5,231.5C 172.942,230.081 167.276,228.581 161.5,227C 155.834,222.835 149.501,220.335 142.5,219.5 Z"/></g>
<g><path style="opacity:1" fill="#7d4d10" d="M 87.5,211.5 C 87.5,216.833 87.5,222.167 87.5,227.5C 89.698,227.88 91.3646,227.213 92.5,225.5C 92.8652,227.588 92.8652,229.921 92.5,232.5C 94.8333,232.5 97.1667,232.5 99.5,232.5C 99.5,232.833 99.5,233.167 99.5,233.5C 96.1667,233.5 92.8333,233.5 89.5,233.5C 87.9255,231.453 86.9255,229.119 86.5,226.5C 86.1795,221.305 86.5128,216.305 87.5,211.5 Z"/></g>
<g><path style="opacity:1" fill="#2141a1" d="M 178.5,231.5 C 180.833,231.5 183.167,231.5 185.5,231.5C 188.067,231.721 190.401,232.388 192.5,233.5C 186.594,235.413 180.427,236.413 174,236.5C 170.167,236.333 166.333,236.167 162.5,236C 151.712,232.071 140.712,228.738 129.5,226C 128.944,225.617 128.611,225.117 128.5,224.5C 133.589,222.081 138.923,221.247 144.5,222C 150.994,224.492 157.327,227.158 163.5,230C 168.42,231.25 173.42,231.75 178.5,231.5 Z"/></g>
<g><path style="opacity:1" fill="#19297c" d="M 142.5,219.5 C 149.501,220.335 155.834,222.835 161.5,227C 167.276,228.581 172.942,230.081 178.5,231.5C 173.42,231.75 168.42,231.25 163.5,230C 157.327,227.158 150.994,224.492 144.5,222C 138.923,221.247 133.589,222.081 128.5,224.5C 132.63,221.676 137.297,220.009 142.5,219.5 Z"/></g>
<g><path style="opacity:1" fill="#472d19" d="M 172.5,226.5 C 183.244,228.509 193.911,230.842 204.5,233.5C 204.158,234.338 203.492,234.672 202.5,234.5C 199.098,234.658 195.764,234.324 192.5,233.5C 190.401,232.388 188.067,231.721 185.5,231.5C 181.099,230.033 176.766,228.366 172.5,226.5 Z"/></g>
<g><path style="opacity:0.999" fill="#3158bb" d="M 49.5,124.5 C 44.9633,125.847 41.4633,128.514 39,132.5C 38.1586,142.276 39.8253,151.609 44,160.5C 52.4665,168.307 59.4665,177.307 65,187.5C 66.658,198.924 67.9914,210.59 69,222.5C 69.5,223 70,223.5 70.5,224C 69.4086,226.064 69.2419,228.231 70,230.5C 70.9745,232.878 71.6411,232.544 72,229.5C 70.7619,233.986 72.5952,236.82 77.5,238C 81.2289,237.923 84.8956,238.09 88.5,238.5C 89.6311,237.249 90.9644,236.249 92.5,235.5C 95.0288,235.071 97.3621,234.404 99.5,233.5C 99.5,233.167 99.5,232.833 99.5,232.5C 109.195,229.993 118.861,227.326 128.5,224.5C 128.611,225.117 128.944,225.617 129.5,226C 140.712,228.738 151.712,232.071 162.5,236C 166.333,236.167 170.167,236.333 174,236.5C 180.427,236.413 186.594,235.413 192.5,233.5C 193.682,235.561 193.015,237.061 190.5,238C 191.167,238.333 191.833,238.667 192.5,239C 190.07,239.643 188.403,241.143 187.5,243.5C 179.606,246.342 171.439,247.675 163,247.5C 154.182,246.256 145.348,244.923 136.5,243.5C 131.289,243.623 126.123,243.623 121,243.5C 114.973,246.877 108.973,250.211 103,253.5C 102.333,252.167 101.667,250.833 101,249.5C 98.3301,250.224 96.8301,251.891 96.5,254.5C 98.5,254.833 100.5,255.167 102.5,255.5C 102.5,256.5 102.5,257.5 102.5,258.5C 103.873,258.343 105.207,258.51 106.5,259C 105.402,259.77 105.402,260.603 106.5,261.5C 104.956,261.297 103.622,260.63 102.5,259.5C 101.707,260.355 102.04,261.189 103.5,262C 102.975,262.692 102.308,263.192 101.5,263.5C 92.2383,259.72 83.905,254.553 76.5,248C 77.8333,247.667 79.1667,247.333 80.5,247C 79.0118,245.283 77.1785,244.116 75,243.5C 74.5172,242.552 74.3505,241.552 74.5,240.5C 72.7231,240.214 71.0564,239.547 69.5,238.5C 68.4461,238.68 67.4461,239.013 66.5,239.5C 65.1491,236.804 63.3157,234.47 61,232.5C 60.2797,230.888 60.4464,229.388 61.5,228C 54.9818,227.142 49.4818,223.976 45,218.5C 37.6147,201.077 30.2814,183.744 23,166.5C 22.8406,158.522 21.6739,150.522 19.5,142.5C 19.7093,141.914 20.0426,141.414 20.5,141C 17.9017,128.497 18.235,115.997 21.5,103.5C 21.1667,102.5 20.8333,101.5 20.5,100.5C 19.5745,101.641 18.7412,101.641 18,100.5C 17.1534,102.193 16.3201,103.86 15.5,105.5C 13.6219,108.802 11.9552,112.136 10.5,115.5C 11.5562,110.493 12.7228,105.493 14,100.5C 14.6082,98.9336 15.4415,97.6002 16.5,96.5C 18.7037,92.2767 21.3704,88.2767 24.5,84.5C 27.6604,81.5339 30.827,78.5339 34,75.5C 29.2939,87.0044 26.1272,99.1711 24.5,112C 24.0404,116.625 25.5404,120.458 29,123.5C 30.0495,122.483 31.2161,122.316 32.5,123C 30.3428,124.912 28.0094,126.579 25.5,128C 26.6086,128.638 27.7753,129.138 29,129.5C 34.4937,124.494 40.9937,121.494 48.5,120.5C 49.4287,121.689 49.762,123.022 49.5,124.5 Z"/></g>
<g><path style="opacity:0.965" fill="#383850" d="M 43.5,237.5 C 44.1667,237.5 44.8333,237.5 45.5,237.5C 48.8333,241.167 52.1667,244.833 55.5,248.5C 54.8333,248.5 54.1667,248.5 53.5,248.5C 50.1667,244.833 46.8333,241.167 43.5,237.5 Z"/></g>
<g><path style="opacity:1" fill="#2548b4" d="M 15.5,105.5 C 16.4959,105.414 17.3292,105.748 18,106.5C 16.8056,126.223 17.4723,145.89 20,165.5C 22.9914,172.149 24.9914,179.149 26,186.5C 31.7278,198.289 37.7278,209.955 44,221.5C 52.5309,229.697 60.6975,238.197 68.5,247C 81.9603,254.9 95.627,262.567 109.5,270C 113.5,271 117.5,272 121.5,273C 133.288,274.493 145.122,275.993 157,277.5C 173.186,276.067 188.686,272.234 203.5,266C 205.733,263.921 208.066,262.088 210.5,260.5C 217.019,257.569 223.352,254.069 229.5,250C 230.833,249.333 232.167,249.333 233.5,250C 231.963,251.11 231.297,252.61 231.5,254.5C 230.127,254.343 228.793,254.51 227.5,255C 228.252,255.671 228.586,256.504 228.5,257.5C 199.151,277.587 166.817,285.587 131.5,281.5C 139.507,281.666 147.507,281.5 155.5,281C 147.13,280.739 138.797,280.072 130.5,279C 118.709,276.015 107.043,272.515 95.5,268.5C 81.8833,259.238 68.2167,249.905 54.5,240.5C 50.5559,234.696 45.5559,230.029 39.5,226.5C 39.5,225.833 39.1667,225.5 38.5,225.5C 37.179,221.032 35.0123,217.032 32,213.5C 30.8437,206.876 29.0103,200.542 26.5,194.5C 25.5,194.5 24.5,194.5 23.5,194.5C 20.2026,184.312 17.3692,173.979 15,163.5C 13.8634,148.859 13.1968,134.193 13,119.5C 9.73652,129.548 8.23652,139.881 8.5,150.5C 8.5,151.5 8.5,152.5 8.5,153.5C 8.16667,153.5 7.83333,153.5 7.5,153.5C 7.04535,140.707 8.04535,128.04 10.5,115.5C 11.9552,112.136 13.6219,108.802 15.5,105.5 Z"/></g>
<g><path style="opacity:0.999" fill="#3e67c4" d="M 275.5,193.5 C 275.5,195.167 275.5,196.833 275.5,198.5C 269.688,214.626 260.688,228.626 248.5,240.5C 246.923,238.198 247.589,236.698 250.5,236C 250.167,235.667 249.833,235.333 249.5,235C 251.685,233.074 253.185,230.908 254,228.5C 241.385,238.446 228.219,247.613 214.5,256C 201.485,262.879 187.651,267.046 173,268.5C 168.515,268.954 164.015,268.454 159.5,267C 160.772,263.086 162.939,259.92 166,257.5C 166.483,256.552 166.649,255.552 166.5,254.5C 173.624,253.4 180.624,251.733 187.5,249.5C 190.196,246.727 193.029,244.06 196,241.5C 196.008,238.655 197.175,236.655 199.5,235.5C 200.315,236.837 201.482,237.837 203,238.5C 203.731,240.899 204.898,243.065 206.5,245C 205.484,245.519 204.818,246.353 204.5,247.5C 204.899,249.197 205.399,250.863 206,252.5C 208.466,252.434 210.966,252.434 213.5,252.5C 214.5,252 215.5,251.5 216.5,251C 229.058,243.896 241.058,236.063 252.5,227.5C 254.701,225.944 254.701,224.777 252.5,224C 261.524,214.751 269.191,204.584 275.5,193.5 Z"/></g>
<g><path style="opacity:0.999" fill="#3660c2" d="M 248.5,240.5 C 242.446,246.887 235.779,252.554 228.5,257.5C 228.586,256.504 228.252,255.671 227.5,255C 228.793,254.51 230.127,254.343 231.5,254.5C 231.297,252.61 231.963,251.11 233.5,250C 232.167,249.333 230.833,249.333 229.5,250C 223.352,254.069 217.019,257.569 210.5,260.5C 193.759,267.689 176.259,271.689 158,272.5C 140.199,271.617 123.032,267.951 106.5,261.5C 105.402,260.603 105.402,259.77 106.5,259C 105.207,258.51 103.873,258.343 102.5,258.5C 102.5,257.5 102.5,256.5 102.5,255.5C 100.5,255.167 98.5,254.833 96.5,254.5C 96.8301,251.891 98.3301,250.224 101,249.5C 101.667,250.833 102.333,252.167 103,253.5C 108.973,250.211 114.973,246.877 121,243.5C 126.123,243.623 131.289,243.623 136.5,243.5C 145.348,244.923 154.182,246.256 163,247.5C 171.439,247.675 179.606,246.342 187.5,243.5C 188.403,241.143 190.07,239.643 192.5,239C 191.833,238.667 191.167,238.333 190.5,238C 193.015,237.061 193.682,235.561 192.5,233.5C 195.764,234.324 199.098,234.658 202.5,234.5C 201.791,235.404 200.791,235.737 199.5,235.5C 197.175,236.655 196.008,238.655 196,241.5C 193.029,244.06 190.196,246.727 187.5,249.5C 180.624,251.733 173.624,253.4 166.5,254.5C 166.649,255.552 166.483,256.552 166,257.5C 162.939,259.92 160.772,263.086 159.5,267C 164.015,268.454 168.515,268.954 173,268.5C 187.651,267.046 201.485,262.879 214.5,256C 228.219,247.613 241.385,238.446 254,228.5C 253.185,230.908 251.685,233.074 249.5,235C 249.833,235.333 250.167,235.667 250.5,236C 247.589,236.698 246.923,238.198 248.5,240.5 Z"/></g>
<g><path style="opacity:1" fill="#151c6f" d="M 45.5,237.5 C 46.552,237.351 47.552,237.517 48.5,238C 52.8083,241.637 57.1417,245.304 61.5,249C 64.7274,253.051 68.0608,256.885 71.5,260.5C 69.1475,259.66 67.1475,258.326 65.5,256.5C 64.4154,254.413 62.7488,253.08 60.5,252.5C 59.4154,250.413 57.7488,249.08 55.5,248.5C 52.1667,244.833 48.8333,241.167 45.5,237.5 Z"/></g>
<g><path style="opacity:0.098" fill="#dbdfeb" d="M 279.5,192.5 C 266.903,228.601 243.236,254.767 208.5,271C 157.238,292.401 108.571,287.734 62.5,257C 59.0435,254.613 56.0435,251.78 53.5,248.5C 54.1667,248.5 54.8333,248.5 55.5,248.5C 56.5846,250.587 58.2512,251.92 60.5,252.5C 61.5846,254.587 63.2512,255.92 65.5,256.5C 67.1475,258.326 69.1475,259.66 71.5,260.5C 74.9758,263.623 78.9758,265.957 83.5,267.5C 84.5137,268.674 85.847,269.34 87.5,269.5C 89.5093,271.065 91.8427,272.065 94.5,272.5C 100.365,275.676 106.699,277.676 113.5,278.5C 115.515,279.924 117.848,280.59 120.5,280.5C 124.154,280.942 127.821,281.276 131.5,281.5C 166.817,285.587 199.151,277.587 228.5,257.5C 235.779,252.554 242.446,246.887 248.5,240.5C 260.688,228.626 269.688,214.626 275.5,198.5C 276.833,196.5 278.167,194.5 279.5,192.5 Z"/></g>
<g><path style="opacity:0.976" fill="#302f4b" d="M 60.5,252.5 C 62.7488,253.08 64.4154,254.413 65.5,256.5C 63.2512,255.92 61.5846,254.587 60.5,252.5 Z"/></g>
<g><path style="opacity:0.984" fill="#302f4c" d="M 55.5,248.5 C 57.7488,249.08 59.4154,250.413 60.5,252.5C 58.2512,251.92 56.5846,250.587 55.5,248.5 Z"/></g>
<g><path style="opacity:0.996" fill="#2f2b5b" d="M 71.5,260.5 C 76.4646,261.311 80.4646,263.644 83.5,267.5C 78.9758,265.957 74.9758,263.623 71.5,260.5 Z"/></g>
<g><path style="opacity:0.969" fill="#413f67" d="M 87.5,269.5 C 90.491,269.166 92.8243,270.166 94.5,272.5C 91.8427,272.065 89.5093,271.065 87.5,269.5 Z"/></g>
<g><path style="opacity:1" fill="#2c55be" d="M 106.5,261.5 C 123.032,267.951 140.199,271.617 158,272.5C 176.259,271.689 193.759,267.689 210.5,260.5C 208.066,262.088 205.733,263.921 203.5,266C 188.686,272.234 173.186,276.067 157,277.5C 145.122,275.993 133.288,274.493 121.5,273C 117.5,272 113.5,271 109.5,270C 95.627,262.567 81.9603,254.9 68.5,247C 60.6975,238.197 52.5309,229.697 44,221.5C 37.7278,209.955 31.7278,198.289 26,186.5C 24.9914,179.149 22.9914,172.149 20,165.5C 17.4723,145.89 16.8056,126.223 18,106.5C 17.3292,105.748 16.4959,105.414 15.5,105.5C 16.3201,103.86 17.1534,102.193 18,100.5C 18.7412,101.641 19.5745,101.641 20.5,100.5C 20.8333,101.5 21.1667,102.5 21.5,103.5C 18.235,115.997 17.9017,128.497 20.5,141C 20.0426,141.414 19.7093,141.914 19.5,142.5C 21.6739,150.522 22.8406,158.522 23,166.5C 30.2814,183.744 37.6147,201.077 45,218.5C 49.4818,223.976 54.9818,227.142 61.5,228C 60.4464,229.388 60.2797,230.888 61,232.5C 63.3157,234.47 65.1491,236.804 66.5,239.5C 67.4461,239.013 68.4461,238.68 69.5,238.5C 71.0564,239.547 72.7231,240.214 74.5,240.5C 74.3505,241.552 74.5172,242.552 75,243.5C 77.1785,244.116 79.0118,245.283 80.5,247C 79.1667,247.333 77.8333,247.667 76.5,248C 83.905,254.553 92.2383,259.72 101.5,263.5C 102.308,263.192 102.975,262.692 103.5,262C 102.04,261.189 101.707,260.355 102.5,259.5C 103.622,260.63 104.956,261.297 106.5,261.5 Z"/></g>
<g><path style="opacity:0.769" fill="#676b96" d="M 113.5,278.5 C 116.152,278.41 118.485,279.076 120.5,280.5C 117.848,280.59 115.515,279.924 113.5,278.5 Z"/></g>
<g><path style="opacity:0.995" fill="#182f97" d="M 39.5,226.5 C 45.5559,230.029 50.5559,234.696 54.5,240.5C 68.2167,249.905 81.8833,259.238 95.5,268.5C 107.043,272.515 118.709,276.015 130.5,279C 138.797,280.072 147.13,280.739 155.5,281C 147.507,281.5 139.507,281.666 131.5,281.5C 127.821,281.276 124.154,280.942 120.5,280.5C 118.485,279.076 116.152,278.41 113.5,278.5C 106.699,277.676 100.365,275.676 94.5,272.5C 92.8243,270.166 90.491,269.166 87.5,269.5C 85.847,269.34 84.5137,268.674 83.5,267.5C 80.4646,263.644 76.4646,261.311 71.5,260.5C 68.0608,256.885 64.7274,253.051 61.5,249C 57.1417,245.304 52.8083,241.637 48.5,238C 47.552,237.517 46.552,237.351 45.5,237.5C 43.504,233.859 41.504,230.192 39.5,226.5 Z"/></g>
</svg>
